# AST/ASF file generated using VICON BodyLanguage
# -----------------------------------------------
:version 1.10
:name VICON
:units
  mass 1.0
  length 0.45
  angle deg
:documentation
   .ast/.asf automatically generated from VICON data using
   VICON BodyBuilder and BodyLanguage model FoxedUp or BRILLIANT.MOD
:root
   order TX TY TZ RX RY RZ
   axis XYZ
   position 0 0 0  
   orientation 0 0 0 
:bonedata
  begin
     id 1 
     name lhipjoint
     direction 0.567725 -0.736092 0.368589 
     length 2.42353 
     axis 0 0 0  XYZ
  end
  begin
     id 2 
     name lfemur
     direction 0.34202 -0.939693 0  
     length 7.24894  
     axis 0 0 20  XYZ
    dof rx ry rz
    limits (-160.0 20.0)
           (-70.0 70.0)
           (-60.0 70.0)
  end
  begin
     id 3 
     name ltibia
     direction 0.34202 -0.939693 0   
     length 7.6997   
     axis 0 0 20   XYZ
    dof rx
    limits (-10.0 170.0)
  end
  begin
     id 4 
     name lfoot
     direction 0.100767 -0.276854 0.955614   
     length 2.37556   
     axis -90 7.62852e-016 20   XYZ
    dof rx rz
    limits (-45.0 90.0)
           (-70.0 20.0)
  end
  begin
     id 5 
     name ltoes
     direction 1.53592e-011 -4.21894e-011 1   
     length 1.18363   
     axis -90 7.62852e-016 20   XYZ
    dof rx
    limits (-90.0 20.0)
  end
  begin
     id 6 
     name rhipjoint
     direction -0.556459 -0.742938 0.372017   
     length 2.4012  
     axis 0 0 0  XYZ 
  end
  begin
     id 7 
     name rfemur
     direction -0.34202 -0.939693 0   
     length 7.5119   
     axis 0 0 -20   XYZ
    dof rx ry rz
    limits (-160.0 20.0)
           (-70.0 70.0)
           (-70.0 60.0)
  end
  begin
     id 8 
     name rtibia
     direction -0.34202 -0.939693 0   
     length 7.50155   
     axis 0 0 -20   XYZ
    dof rx
    limits (-10.0 170.0)
 end
 begin
     id 9 
     name rfoot
     direction -0.118427 -0.325376 0.938139   
     length 2.32487  
     axis -90 -7.62852e-016 -20   XYZ
    dof rx rz
    limits (-45.0 90.0)
           (-20.0 70.0)
  end
  begin
     id 10 
     name rtoes
     direction -1.53525e-011 -4.21868e-011 1   
     length 1.15233   
     axis -90 -7.62852e-016 -20   XYZ
    dof rx
    limits (-90.0 20.0)
  end
  begin
     id 11 
     name lowerback
     direction 0.0287568 0.999577 -0.00434502   
     length 2.15243   
     axis 0 0 0   XYZ
    dof rx ry rz
    limits (-20.0 45.0)
           (-30.0 30.0)
           (-30.0 30.0)
  end
  begin
     id 12 
     name upperback
     direction 0.0294009 0.99956 0.00404628   
     length 2.15427   
     axis 0 0 0   XYZ
    dof rx ry rz
    limits (-20.0 45.0)
           (-30.0 30.0)
           (-30.0 30.0)
  end
  begin
     id 13 
     name thorax
     direction 0.0151014 0.999868 0.0059419   
     length 2.14898   
     axis 0 0 0   XYZ
    dof rx ry rz
    limits (-20.0 45.0)
           (-30.0 30.0)
           (-30.0 30.0)
  end
  begin
     id 14 
     name lowerneck
     direction -0.0249197 0.989906 0.139515   
     length 1.6861   
     axis 0 0 0   XYZ
    dof rx ry rz
    limits (-20.0 45.0)
           (-30.0 30.0)
           (-30.0 30.0)
  end
  begin
     id 15 
     name upperneck
     direction 0.0438463 0.988795 -0.142693   
     length 1.71276   
     axis 0 0 0   XYZ
    dof rx ry rz
    limits (-20.0 45.0)
           (-30.0 30.0)
           (-30.0 30.0)
  end
  begin
     id 16
     name head
     direction 0.0148499 0.997845 -0.0639186  
     length 1.7209  
     axis 0 0 0   XYZ
    dof rx ry rz
    limits (-20.0 45.0)
           (-30.0 30.0)
           (-30.0 30.0)
  end
  begin
     id 17 
     name lclavicle
     direction 0.940298 0.323464 -0.105876  
     length 3.9048  
     axis 0 0 0   XYZ
    dof ry rz
    limits (-20.0 10.0)
           (0.0 20.0)
  end
  begin
     id 18 
     name lhumerus
     direction 1 -4.48954e-011 -4.9675e-028   
     length 4.6851   
     axis 180 -30 -90   XYZ
    dof rx ry rz
    limits (-60.0 90.0)
           (-90.0 90.0)
           (-90.0 90.0)
  end
  begin
     id 19
     name lradius
     direction 1 -4.48992e-011 -1.03359e-026   
     length 3.39626   
     axis 180 -30 -90   XYZ
    dof rx
    limits (-10.0 170.0)
  end
  begin
     id 20
     name lwrist
     direction 1 -4.48906e-011 -1.67336e-026   
     length 1.69813   
     axis 9.90442e-015 90 90   XYZ
    dof ry
    limits (-180.0 0.0)
 end
  begin
     id 21 
     name lhand
     direction 1 -4.49006e-011 -3.34673e-026   
     length 0.486078   
     axis 2.1355e-014 90 90   XYZ
    dof rx rz
    limits (-90.0 90.0)
           (-45.0 45.0)
  end
  begin
     id 22 
     name lfingers
     direction 1 -4.48992e-011 -6.69345e-026   
     length 0.391889   
     axis 4.27099e-014 90 90   XYZ
    dof rx
    limits (0.0 90.0)
  end
  begin
     id 23
     name lthumb
     direction 0.707107 -6.34926e-011 0.707107   
     length 0.562676   
     axis -90 45 2.85299e-015   XYZ
    dof rx rz
    limits (-45.0 45.0)
           (-45.0 45.0)
  end
  begin
     id 24 
     name rclavicle
     direction -0.882459 0.414895 -0.221648   
     length 3.44646  
     axis 0 0 0   XYZ 
    dof ry rz
    limits (-10.0 20.0)
           (-20.0 0.0)
  end
  begin
     id 25 
     name rhumerus
     direction -1 -4.48962e-011 -2.37984e-027  
     length 5.55576   
     axis 180 30 90   XYZ
    dof rx ry rz
    limits (-90.0 60.0)
           (-90.0 90.0)
           (-90.0 90.0)
  end
  begin
     id 26 
     name rradius
     direction -1 -4.48982e-011 -6.86791e-027   
     length 3.32774   
     axis 180 30 90   XYZ
    dof rx
    limits (-10.0 170.0)
  end
  begin
     id 27 
     name rwrist
     direction -1 -4.48961e-011 -1.67336e-026   
     length 1.66387   
     axis 9.90442e-015 -90 -90   XYZ
    dof ry
    limits (-180.0 0.0)
  end
  begin
     id 28
     name rhand
     direction -1 -4.4897e-011 -3.34673e-026   
     length 0.507628   
     axis 2.1355e-014 -90 -90   XYZ
    dof rx rz
    limits (-90.0 90.0)
           (-45.0 45.0)
  end
  begin
     id 29
     name rfingers
     direction -1 -4.48854e-011 -6.69345e-026   
     length 0.409263   
     axis 4.27099e-014 -90 -90   XYZ
    dof rx
    limits (0.0 90.0)
  end
  begin
     id 30
     name rthumb
     direction -0.707107 -6.34913e-011 0.707107   
     length 0.587622   
     axis -90 -45 -2.85299e-015   XYZ
    dof rx rz
    limits (-45.0 45.0)
           (-45.0 45.0)
  end
:hierarchy
  begin
    root lhipjoint rhipjoint lowerback
    lhipjoint lfemur
    lfemur ltibia
    ltibia lfoot
    lfoot ltoes
    rhipjoint rfemur
    rfemur rtibia
    rtibia rfoot
    rfoot rtoes
    lowerback upperback
    upperback thorax
    thorax lowerneck lclavicle rclavicle
    lowerneck upperneck
    upperneck head
    lclavicle lhumerus
    lhumerus lradius
    lradius lwrist
    lwrist lhand lthumb
    lhand lfingers
    rclavicle rhumerus
    rhumerus rradius
    rradius rwrist
    rwrist rhand rthumb
    rhand rfingers
  end

#!OML:ASF E:\motion texture\Top Level 1\Subject 1\Session 1\male.ASF
:FULLY-SPECIFIED
:DEGREES
118
root 44.0251 17.7541 5.33442 119.633 -82.8273 -110.17
lowerback -2.94751 0.434542 6.89135
upperback -0.935222 0.241765 3.59888
thorax 0.707724 0.0773649 -0.145032
lowerneck -12.9432 -5.86921 -6.52739
upperneck 13.0028 -7.97107 7.56825
head 6.65756 -3.59999 2.70401
rclavicle 1.09332e-015 -8.74653e-015
rhumerus -26.7439 -9.65968 -78.1495
rradius 23.1745
rwrist 13.441
rhand -11.6192 -23.1217
rfingers 7.12502
rthumb 14.4239 -52.6005
lclavicle 1.09332e-015 -8.74653e-015
lhumerus -29.496 13.1567 84.0557
lradius 25.708
lwrist -30.2881
lhand -12.7111 19.1687
lfingers 7.12502
lthumb 13.3717 48.7197
rfemur -8.66614 3.27714 31.2095
rtibia 16.6585
rfoot -12.8117 -7.84774
rtoes 14.3983
lfemur -18.4493 -0.0915378 -7.65278
ltibia 34.9384
lfoot -13.2005 3.16612
ltoes -10.8897
119
root 44.0022 17.752 5.32416 119.183 -82.8298 -109.732
lowerback -2.94352 0.458106 6.99397
upperback -0.813161 0.262507 3.59526
thorax 0.833236 0.0932919 -0.204402
lowerneck -12.8839 -5.97455 -6.5538
upperneck 13.0045 -8.12351 7.62244
head 6.66275 -3.67205 2.71031
rclavicle -1.39149e-015 4.21423e-014
rhumerus -26.5941 -9.703 -78.1207
rradius 23.1844
rwrist 13.434
rhand -11.624 -23.1409
rfingers 7.12502
rthumb 14.4193 -52.62
lclavicle -1.39149e-015 4.21423e-014
lhumerus -29.4239 13.1052 84.1233
lradius 25.9006
lwrist -30.0717
lhand -12.751 19.1298
lfingers 7.12502
lthumb 13.3332 48.6833
rfemur -8.544 3.23759 31.2711
rtibia 16.6178
rfoot -12.875 -7.8493
rtoes 14.3884
lfemur -19.114 0.0807541 -7.59823
ltibia 36.0054
lfoot -13.0795 3.11667
ltoes -11.3579
120
root 43.9786 17.7501 5.31429 118.725 -82.835 -109.285
lowerback -2.94034 0.482931 7.09576
upperback -0.68836 0.284485 3.59115
thorax 0.962256 0.11016 -0.263639
lowerneck -12.8278 -6.08245 -6.5773
upperneck 13.0051 -8.27971 7.67639
head 6.66841 -3.74572 2.71556
rclavicle 6.95746e-016 -6.36111e-015
rhumerus -26.4415 -9.75275 -78.0888
rradius 23.1927
rwrist 13.428
rhand -11.6276 -23.1666
rfingers 7.12502
rthumb 14.4158 -52.646
lclavicle 6.95746e-016 -6.36111e-015
lhumerus -29.3501 13.0519 84.1933
lradius 26.0891
lwrist -29.8609
lhand -12.7882 19.0875
lfingers 7.12502
lthumb 13.2974 48.6433
rfemur -8.41769 3.19708 31.3282
rtibia 16.572
rfoot -12.9375 -7.85363
rtoes 14.3751
lfemur -19.7868 0.250471 -7.54942
ltibia 37.0525
lfoot -12.9523 3.08096
ltoes -11.8203
121
root 43.9543 17.7483 5.30484 118.252 -82.8422 -108.822
lowerback -2.94131 0.50706 7.19773
upperback -0.562666 0.304761 3.58741
thorax 1.0946 0.126447 -0.322509
lowerneck -12.7603 -6.18884 -6.60351
upperneck 12.9998 -8.43456 7.73564
head 6.67058 -3.81886 2.72339
rclavicle 1.00883e-014 3.73715e-014
rhumerus -26.2893 -9.80311 -78.0548
rradius 23.1977
rwrist 13.4252
rhand -11.632 -23.1936
rfingers 7.12502
rthumb 14.4116 -52.6732
lclavicle 1.00883e-014 3.73715e-014
lhumerus -29.2827 12.9991 84.2628
lradius 26.2746
lwrist -29.653
lhand -12.8238 19.0435
lfingers 7.12502
lthumb 13.2631 48.6015
rfemur -8.288 3.15751 31.3819
rtibia 16.5224
rfoot -12.9994 -7.86275
rtoes 14.3592
lfemur -20.4656 0.416848 -7.50534
ltibia 38.0722
lfoot -12.8215 3.05791
ltoes -12.258
122
root 43.9294 17.7467 5.29581 117.771 -82.8517 -108.351
lowerback -2.94488 0.530156 7.29893
upperback -0.437494 0.32315 3.58445
thorax 1.22792 0.141965 -0.380095
lowerneck -12.6803 -6.29344 -6.63445
upperneck 12.988 -8.5876 7.80203
head 6.66909 -3.89125 2.73481
rclavicle -8.05078e-015 1.74931e-014
rhumerus -26.1398 -9.85059 -78.019
rradius 23.2005
rwrist 13.4245
rhand -11.6356 -23.2201
rfingers 7.12502
rthumb 14.4081 -52.7
lclavicle -8.05078e-015 1.74931e-014
lhumerus -29.2252 12.9484 84.3314
lradius 26.458
lwrist -29.4492
lhand -12.8558 19.0006
lfingers 7.12502
lthumb 13.2322 48.5607
rfemur -8.15477 3.11823 31.4315
rtibia 16.4684
rfoot -13.0604 -7.87571
rtoes 14.341
lfemur -21.1481 0.579698 -7.46672
ltibia 39.059
lfoot -12.6876 3.04872
ltoes -12.6895
